<?xml version="1.0" encoding="utf-8"?>

<!DOCTYPE svg PUBLIC "-//W3C//DTD SVG 1.1//EN" "http://www.w3.org/Graphics/SVG/1.1/DTD/svg11.dtd">
<svg version="1.1" id="Layer_1" xmlns="http://www.w3.org/2000/svg" xmlns:xlink="http://www.w3.org/1999/xlink" x="0px" y="0px"
	 viewBox="0 0 1571.492 1660.276" enable-background="new 0 0 1571.492 1660.276" xml:space="preserve">
<g>
	<path d="M1375.623,1623.575c-3.121,1.842-6.762,2.25-9.863,4.376c-3.674,2.52-8.541,1.13-10.242-2.044
		c-4.629-8.634-16.851-5.886-16.781-13.213c0.116-12.102-10.309-14.193-11.219-24.443c-1.298-14.611-2.932-84.585-12.957-89.274
		c-8.311,6.278,1.429,12.836-12.737,21.804c-5.726,3.624-4.554,9.688-5.753,14.76c-1.764,7.462-6.842,13.58-14.107,15.37
		c-3.58,0.883-11.856,7.705-16.774-3.804c-1.466-3.432-1.399-9.217-6.043-10.985c-3.938-1.501-2.968,3.108-4.653,4.591
		c-11.802,10.394-2.004,14.424-14.452,16.417c-3.368,0.539-3.038-2.685-3.563-4.731c-1.456-5.668-5.36-12.377-3.603-16.817
		c2.772-7.003,4.362-15.748,12.869-20.324c1.178,3.947-0.073,8.264,2.111,11.828c0.98,1.6,0.366,4.656,3.469,4.17
		c7.423-1.162,2.329-10.886,12.328-25.162c1.809-2.583,2.802-7.969-3.681-11.049c-8.637-4.103-8.196-14.924-6.924-44.583
		c0.686-15.976-20.301-33.438-15.664-77.268c5.23-49.427,25.012-50.973,3.798-60.154c-12.272-5.311-15.404-15.588-17.223-27.05
		c-2.605-16.413-13.968-69.307-2.62-97.209c2.705-6.65,4.405-6.401,9.765-1.787c18.104,15.584-1.939,29.341,16.622,44.449
		c1.563,1.272,2.531,3.937,2.759,6.069c0.764,7.144,5.323,13,6.481,19.876c1.797,10.669,15.407,9.414,18.908,20.399
		c0.882,2.769,3.461,2.673,5.295,0.12c9.016-12.55,36.706-8.033,26.886-16.134c-13.153-10.852-19.919-26.604-30.609-39.318
		c-11.507-13.685-15.412-30.863-21.633-46.959c-6.202-16.049-8.181-12.894-13.784-61.092c-1.64-14.108-3.946-28.308-3.695-42.428
		c0.376-21.119-3.919-42.144-1.672-63.113c6.15-57.396,8.93-65.555,3.502-76.896c-5.706-11.923-4.194-24.444,1.949-35.692
		c18.581-34.019-18.812-80.309-29.585-149.61c-1.597-10.275-5.468-57.02-8.36-60.257c-6.798-7.607-4.985-18.37-9.789-26.714
		c-0.807-1.401,0.145-4.278-2.735-3.816c-1.7,0.273-3.629,1.203-4.226,3.15c-13.285,43.369-15.756,85.966-11.823,116.33
		c6.318,48.777,1.126,43.302-0.142,71.746c-0.813,18.237,5.38,10.106-2.944,101.436c-1.568,17.206-5.548,34.18-5.422,51.585
		c0.152,20.892-2.796,41.588-4.219,62.375c-6.046,88.365-9.821,78.452-12.54,101.787c-0.421,3.616-1.09,8.185-2.836,11.018
		c-10.688,17.344-7.848,41.7-8.744,61.163c-7.877,171.152,7.302,201.08-8.595,237.877c-0.573,1.327-0.094,4.761,0.053,6.425
		c2.551,1.616,4.315-3.467,6.223-0.441c3.677,5.833-5.365,13.578,0.449,17.294c5.518,3.527,27.666-33.308,31.559-39.569
		c1.727-2.777,4.817-1.267,2.753,1.603c-7.583,10.544-7.407,23.948-12.975,35.245c-0.896,1.818-1.576,4.53,0.311,5.714
		c3.15,1.976,3.079,0.802,35.973-28.396c-0.78,4.333-2.397,7.495-1.538,9.687c4.044,10.324-3.289,23.618,9.668,18.138
		c14.371-6.078,17.274-23.827,27.196-7.963c5.08,8.123,2.296,15.148-0.641,22.752c-2.312,5.986-2.895,12.662-4.775,18.595
		c-5.195,16.392-15.603,16.278-20.646,22.346c-3.184,3.831-5.88,2.201-8.708-1.327c-4.647-5.796-2.797-11.746-1.375-17.771
		c0.4-1.694,2.279-3.628,0.05-4.786c-3.791-1.969-5.138-0.635-19.089,12.368c-2.208,2.059-3.774,6.544-7.462,3.786
		c-5.687-4.254-4.05-12.166-1.024-18.64c1.123-2.403,1.593-4.496-1.059-5.867c-2.106-1.088-4.122-2.646-6.903-0.555
		c-4.332,3.256-8.619,6.53-14.852,6.013c-8.244-0.685,1.307,12.726-7.009,13.331c-4.626,0.337-10.234,1.987-13.413-3.408
		c-3.239-5.496-9.946-6.542-13.358-1.249c-2.782,4.316-6.397,8.137-8.588,12.67c-2.478,5.127-11.3,5.324-13.81-0.54
		c-4.124-9.632-4.705-16.176-8.691-10.738c-13.4,18.28-17.239,8.905-13.597,26.63c1.112,5.412-2.692,7.076-4.762,8.985
		c-2.474,2.281-5.01-0.895-6.989-3.374c-9.945-12.46-3.194,13.327-18.153,5.274c-8.771-4.721-15.731-7.134-19.869,2.874
		c-1.622,3.922-3.625,8.077-4.465,11.859c-2.188,9.853-11.054,10.647-17.357,14.596c-15.08,9.449-23.59,9.832-38.826,3.113
		c-10.564-4.659-12.331-15.349-15.844-25.057c-6.189-17.104,0.956-33.323,1.743-49.95c1.357-28.672,8.338-31.618,2.724-37.48
		c-12.463-13.014-17.15-28.87-16.665-46.482c0.089-3.247-23.408-100.75-20.927-132.916c0.665-8.622,0.865-17.55-2.539-25.984
		c0,0-10.501-142.541-17.369-179.401c-1.913-10.265-1.015-21.02-2.121-31.476c-2.356-22.27-6.726-34.758-5.582-58.7
		c0.655-13.699-2.192-27.031-3.238-40.531c-3.611-46.636,2.492-49.049-1.909-68.493c-5.908-26.093,9.283-177.809,18.524-212.062
		c1.611-5.973,3.596-12.638,0.093-19.405c-2.947-5.692-0.174-12.459-2.274-18.855c-4.339-13.216-8.624-26.869-9.078-40.665
		c-0.414-12.596-5.182-24.536-3.795-37.354c0.544-5.032-2.438-10.439-3.776-15.686c-0.765-2.999-3.479-2.015-3.947,0.336
		c-6.006,30.148-16.36,51.652-20.212,118.574c-5.108,88.751-7.574,104.843-11.376,106.72c-1.849,0.913-1.914,3.024-1.719,4.914
		c1.36,13.128,0.197,26.255,0.267,39.374c0.028,5.319,3.711,10.53,5.109,15.951c4.541,17.607,4.286,51.468,4.311,52.468
		c0.483,18.647-15.226,32.045-20.82,30.96c-12.427-2.411-24.247-5.739-29.948-18.962c-17.087-39.63-20.001-159.196-18.872-200.397
		c3.134-114.409,9.988-57.892,10.455-176.513c0.291-73.939,2.43-78.051,11.39-116.734c7.764-33.522,3.933-45.699,14.724-81.833
		c5.275-17.661,0.185-7.668,4.505-17.461c2.346-5.318,7.996-8.986,7.711-15.645c-0.062-1.452,1.292-2.691,3.045-3.337
		c18.395-6.778,14.133-12.354,39.278-20.895c62.269-21.153,61.121-17.978,81.998-20.889c14.149-1.973,7.291-9.716,15.631-16.45
		c6.271-5.064,3.648-20.012,4.092-26.652c0.33-4.94-2.997-9.292-8.342-12.157c-33.953-18.194-27.435-145.3-22.433-149.185
		c10.388-8.068,19.471-18.45,32.351-22.372c12.368-3.765,24.772-8.079,38.047-8.189c33.002-0.273,76.039,5.925,89.542,36.22
		c9.14,20.506,17.13,18.616,14.258,73.925c-0.632,12.166-0.512,24.687-5.088,36.44c-4.706,12.086-8.005,24.77-17.638,34.463
		c-7.413,7.459,0.392,10.738-6.706,45.781c-0.666,3.289,0.37,5.448,2.087,7.355c2.24,2.488,4.375-0.384,5.858-1.418
		c8.974-6.224,46.535,12.304,57.321,14.733c51.607,11.622,81.205,25.662,93.894,81.289c12.251,53.71,4.121,196.892,12.487,225.574
		c5.014,17.189,15.004,32.518,19.345,50.364c6.114,25.134,2.346,50.153,6.699,75.093c2.084,11.942,6.462,23.426,6.755,35.745
		c0.099,4.163,1.519,8.367,2.776,12.416c3.176,10.232,1.814,20.976,3.855,31.35c1.9,9.659,1.774,19.722,2.105,29.38
		c0.472,13.729,5.422,27.084,2.678,41.196c-0.931,4.785-0.169,11.137,1.633,16.039c3.046,8.289,1.377,17.104,3.683,24.999
		c5.094,17.442-5.602,45.943-22.153,53.851c-10.627,5.078-16.044-16.978-23.622,67.105c-1.317,14.611,1.347,29.293,2.879,43.886
		c2.562,24.404-5.484-7.072,9.288,69.402c2.687,13.913,7.748,27.116,13.494,39.493c5.375,11.577,6.897,24.822,14.483,35.066
		c23.21,31.344,19.644,36.488,25.779,33.008c3.85-2.184,6.662-13.36,4.891-17.415c-17.371-39.769-0.142-46.253,2.781-61.81
		c4.853-25.826,14.967-12.67,11.558-45.367c-2.416-23.179-14.468-30.148-14.56-38.603c-0.102-9.462-6.071-18.233-3.103-28.023
		c0.505-1.667-0.111-3.492,1.232-5.18c5.028-6.32,19.659-9.012,26.946-6.098c7.207,2.882,13.483,7.373,20.822,10.168
		c15.003,5.715,18.132,28.409,31.032,45.372c1.655,2.177,2.664,4.627,2.27,6.834c-1.197,6.705,3.318,7.594,7.586,7.063
		c14.248-1.773,20.681,8.101,24.698-2.429c4.897-12.835,16.548-20.108,26.776-28.152c5.73-4.506,10.631-9.838,16.349-14.291
		c8.545-6.654,26.884-11.813,32.609,0.474c7.751,16.638,9.529,37.558-8.793,47.276c-8.757,4.645-16.51,11.303-24.322,17.551
		c-3.267,2.613-7.935,2.512-10.442,6.17c-6.975,10.184,6.616,2.281,9.54,14.256c7.191,29.456,49.521,60.323,52.763,63.136
		c3.198,2.775,3.507,4.199,1.85,8.686c-6.3,17.06-29.259,46.856-49.357,47.994c-8.586,0.486-13.792,7.706-17.504,15.395
		c-1.401,2.903-1.653,1.867,17.032,30.826c8.45,13.096,7.636,32.702,8.189,34.044c4.374,10.629,0.732,21.966,3.102,32.954
		c4.832,22.408-22.888,64.222-26.298,86.021c-1.852,11.84-9.578,20.157-9.004,37.403c0.166,4.97-0.347,9.255-4.387,13.114
		c-5.069,4.841-5.011,25.932-11.915,40.885c-2.611,5.654,3.609,5.228,4.98,3.729c7.402-8.087,19.149-5.686,27.497-11.56
		c1.574-1.108,4.501-1.735,6.963-0.03c1.124,0.778,3.267-0.073,3.216,2.506c-0.099,5.053-2.556,1.457-12.286,12.841
		c-3.147,3.682-0.916,3.935,1.965,4.303c0.692,0.088,29.131-12.343,31.55-13.548c11.121-5.542,0.041,7.248,19.964,1.346
		c6.329-1.874,8.786-7.372,12.292-2.446c3.422,4.809-1.641,13.582-6.157,17.328c-10.149,8.419-23.482,9.949-34.197,17.858
		c-43.433,32.058-62.519,13.893-62.246,11.024c0.893-9.39-15.133-11.193-16.131-0.923c-0.515,5.3-6.414,5.934-9.364,9.295
		c-1.966,2.239-4.729,4.133-5.971,6.803c-1.866,4.014-5.019,3.02-8.07,3.168c-3.882,0.188-2.734-2.958-3.184-4.862
		c-3.448-14.587,10.518-42.721,4.164-44.672c-6.198-1.904-10.776,4.609-11.328,6.58c-1.457,5.197-4.683,8.943-7.755,13.229
		c-4.724,6.591-4.975,16.33-9.349,24.057C1371.208,1619.029,1374.083,1621.603,1375.623,1623.575z"/>
	<path d="M743.694,485.148c-1.128-34.589-10.99-71.182-16.212-105.501c-5.071-33.327-8.405-55.351-50.586-75.234
		c-13.987-6.593-28.092-12.625-44.109-11.387c-1.177,0.091-2.829,0.716-3.608-1.411c2.643-4.914,22.63-14.251,23.685-58.011
		c3.061-126.959-37.004-166.329-43.257-168.251c-8.072-2.48-41.431-23.9-64.486-20.898c-45.925,5.98-80.015,35.206-93.385,71.429
		c-1.415,3.834-4.036,7.178-5.164,10.838c-7.715,25.041-11.851,49.482-11.851,49.482c-10.994,37.855,5.195,44.831,1.768,63.185
		c-2.133,11.424,2.639,37.073,6,47.624c1.396,4.384,0.7,6.492-3.423,7.503c-9.517,2.335-16.524,9.685-26.564,11.838
		c-8.96,1.921-11.427,12.67-16.635,19.672c-23.766,31.951-25.382,70.971-33.692,96.285c-18.59,56.628-25.113,158.355-24.883,157.355
		c-5.237,22.769-13.433,43.092-14.066,50.001c-0.092,1.002-7.077,70.522-7.138,74.089c-0.242,14.016,0.759,99.063,9.394,115.028
		c5.248,9.702-1.984,28.984-0.542,39.784c1.55,11.612-7.207,20.494-8.596,41.089c-0.508,7.535-0.005,15.199-0.84,22.588
		c-1.028,9.099,0.558,16.958,7.959,21.694c6.092,3.898,10.009,9.264,14.814,14.136c4.079,4.137,7.75,6.221,6.15,13.933
		c-1.567,7.557-0.635,15.842-1.632,23.983c-1.511,12.346-5.894,24.168-5.826,36.818c0.112,20.686-16.703,55.85-27.561,90.492
		c-3.782,12.069-12.578,22.081-14.487,35.285c-0.774,5.352-2.338,11.308-5.016,16.194c-9.642,17.587-15.139,36.997-24.69,54.622
		c-7.795,14.385-15.113,4.582-29.56-8.546c-11.646-10.583,6.256-9.835,11.173-22.579c6.89-17.86,16.286-12.6,15.323-19.936
		c-1.169-8.908-15.245-18.082-23.948-15.603c-2.204,0.628-4.35,1.533-6.59,1.949c-19.941,3.707-33.297,21.983-29.719,41.251
		c0.58,3.123-0.111,5.464-2.703,5.654c-28.286,2.077-28.86,26.305-46.21,13.876c-8.457-6.058-19.037-9.5-25.743-17.695
		c-9.707-11.863-28.6-9.589-38.749-1.481c-9.659,7.718-1.243,11.452-2.962,18.932c-5.437,23.661,16.68,21.58,25.94,24.776
		c10.235,3.532,35.707,15.145,34.609,25.867c-1.82,17.769-4.117,24.092,11.332,61.321c2.938,7.079,0.378,9.098-13.351,21.244
		c-2.353,2.082-5.756,2.645-7.094-0.303c-1.836-4.043-6.584-6.019-6.889-11.156c-0.432-7.267-8.08-2.664-9.263-8.826
		c-1.467-7.638-6.624-13.828-8.224-21.429c-0.901-4.279-10.117-9.814-15.045-8.722c-5.602,1.241-3.638,1.985-4.263,33.891
		c-0.493,25.207,9.657,31.551,19.186,49.011c14.437,26.452-24.145,37.346-5.627,65.576c3.955,6.029,15.133-4.962,14.266,5.49
		c-0.879,10.599,0.069,21.245-2.623,31.832c-8.041,31.634-4.595,53.509,2.291,72.675c4.009,11.156-6.561,11.072-9.655,7.02
		c-0.498-0.652-1.72-0.719-2.307-1.34c-2.862-3.028-6.711-3.013-9.362-1.067c-5.992,4.399,5.503,9.017,1.635,15.238
		c-0.783,1.259-14.908,0.005-15.242-1.447c-1.339-5.818-5.541-3.806-8.594-2.986c-4.054,1.089-20.799-7.083-21.799-7.61
		c-8.308-4.38-22.61-2.643-19.91,2.648c4.055,7.949-2.008,7.114-7.014,7.474c2.797,3.526,0.313,8.704,5.127,10.847
		c3.697,1.646,8.555,5.933,10.719,4.819c7.543-3.885,13.209-3.927,21.177,0.158c6.126,3.14,14.672,1.572,21.422,5.711
		c1.889,1.158,4.78,2.231,7.154,0.291c7.309-5.974,16.266-3.278,23.498-2.077c24.28,4.037,26.812,17.185,40.347,11.54
		c6.798-2.834,8.234,3.415,12.647,4.023c2.523-5.961,8.604-7.194,14.4-2.431c6.49,5.332,11.819,11.664,21.676,12.616
		c13.621,1.316,7.833-6.188,12.025-11.069c-0.608-1.839-0.339-3.924,0.493-5.749c-0.496-0.75-0.639-1.709-0.392-2.738
		c2.509-10.484-8.287-35.701-0.9-52.147c1.662-3.7,2.811-5.329,7.496-3.815c8.495,2.744,12.273-0.046,13.385-8.836
		c0.734-5.805,0.831-2.193,20.631-8.987c-9.756,28.933-17.219,56.734-9.117,86.261c1.43,0.442,4.101-0.712,6.065,1.83
		c4.888,6.327,11.059,4.329,17.003,1.954c3.082-1.231,7.274-2.281,6.45-6.799c-1.73-9.491,1.075-16.016,10.584-19.286
		c1.051-0.361,1.669-2.646,2.049-4.149c3.576-14.136,2.174-26.589,12.784-33.8c7.706-5.237-16.289-6.162-4.969-21.101
		c0.781-1.03,0.327-0.294,6.322-34.802c1.598-9.199,9.122-3.962,11.258-18.224c1.307-8.723-0.198-17.934,4.135-26.13
		c5.141-9.724-12.421-20.902-1.781-31.569c1.321-1.325-4.482-47.372-41.836-71.163c-13.625-8.678,26.309-19.567,21.157-29.236
		c-2.684-5.037-0.253-8.777,1.114-13.035c2.637-8.208,4.462-16.765,7.982-24.564c1.99-4.41-3.082-7.871-0.283-11.111
		c2.995-3.467,1.247-5.582-0.762-8.218c-5.691-7.468-11.859-13.89-22.111-14.833c-6.601-0.607-6.12-7.813-9.15-11.768
		c-2.43-3.171,2.874-2.973,3.694-5.216c1.419-3.881,5.154-6.396,6.331-10.596c5.177-18.483,16.424-35.087,22.143-55.594
		c2.57-9.215,4.783-18.193,9.675-26.798c16.297-28.669,2.199-5.554,14.72-37.943c26.556-68.693,20.443-69.489,27.198-100.332
		c2.93-13.377,3.784-27.037,0.294-40.554c-0.799-3.092-0.481-4.777,2.592-6.657c4.913-3.005,9.193-7.564,9.111-13.573
		c-0.224-16.377,3.236-32.416,3.423-48.834c0.17-14.836-1.769-29.517-1.301-44.297c0.041-1.282-0.872-2.573-1.225-3.891
		c-6.132-22.875,6.935-45.966,10.163-44.4c0.897,0.435,2.038,1.551,2.068,2.399c0.207,5.935,1.918,12.083,1.229,17.671
		c-4.365,35.404,7.379,48.321,13.059,95.135c3.296,27.165,22.103,101.581,33.996,123.144c3.904,7.078,7.348,13.927,2.975,22.884
		c-16.711,34.221-12.371,61.117-9.528,100.236c8.563,117.832,62.322,209.211,62.928,259.647c0.301,25.092,4.365,50.531-3.006,75.702
		c-6.558,22.391,4.275,55.884-20.196,46.411c-2.507-0.97-7.5-1.152-7.523,0.357c-0.133,8.549-8.827,2.61,9.954,32.287
		c3.775,5.965,6.892,13.07,14.456,15.254c12.717,3.673,5.871-6.754,12.202-7.891c2.449-0.44,4.882-0.576,5.684,2.287
		c1.487,5.309,5.023,3.853,19.202,7.685c17.21,4.652,30.345-1.58,37.233-17.758c2.553-5.996,5.372-6.45,10.038-1.899
		c6.492,6.331,2.995,12.883,7.99,12.377c8.464-0.858,5.824-13.696,19.836-33.35c0.518-0.727,2.013-1.773,0.923-2.898
		c-3.736-3.854-0.847-5.687,2.012-7.911c6.657-5.179,7.431-18.919,5.641-23.391c-2.115-5.284,2.84-9.715,3.615-14.532
		c1.393-8.658,4.18-16.982,2.36-26.495c-1.896-9.907-6.446-20.39-1.227-30.857c0.195-0.392-0.748-1.229-0.753-1.861
		c-0.098-14.187-2.443-28.206-4.721-42.075c-1.461-8.896,1.625-16.398,2.757-24.501c1.504-10.757,1.861-21.998,5.442-32.059
		c4.254-11.951,8.875-23.448,10.604-36.266c5.861-43.432,20.536-64.421,24.572-85.138c3.849-19.757,13.911-36.71,15.629-60.545
		c0.11-1.524-0.194-3,0.544-4.635c7.102-15.733,7.383-32.71,9.19-49.489c2.738-25.425-6.456-49.755-5.97-74.906
		c0.054-2.799-4.007-4.177-1.5-8.31c2.682-4.421,9.007-33.363,10.399-41.547c7.936-46.661,16.505-54.523,18.687-76.219
		c0.196-1.952,0.736-4.064,3.224-5.334c5.271,9.12,9.999,20.424,21.816,19.032c10.263-1.209,19.423-7.128,20.238-14.751
		c1.69-15.81,8.144-30.457,9.08-46.669c0.932-16.126-0.646-32.626,3.808-48.52c2.824-10.076,0.521-20.508,2.263-30.722
		c4.15-24.328,8.187-48.664,9.345-73.422c0.221-4.723-1.395-9.705,0.626-14.271C774.912,678.542,746.336,566.154,743.694,485.148z
		 M449.834,619.548c-10.173,16.183-16.845,34.235-27.51,50.256c-22.004,33.057-10.693,22.046-23.36,39.584
		c-1.964-7.337,0.343-14.412-0.069-21.538c-3.448-59.752,1.915-63.478,28.994-140.067c5.839-16.516,5.948-16.978,9.782-16.929
		c4.709,0.06,2.426,0.79,6.87,37.85c1.846,15.397,0.328,31.202,5.563,46.193C450.641,616.438,450.773,618.054,449.834,619.548z
		 M696.697,678.523c0.188,1.869,1.135,4.887-0.926,5.585c-3.21,1.087-3.239-2.634-4.049-4.399
		c-35.376-77.077-23.254-48.067-21.662-76.523c0.733-13.093,6.574-25.076,6.664-38.364c0.048-7.103,2.636-14.33,2.385-21.714
		c-0.042-1.235,0.018-2.252,1.694-2.25c1.927,0.002,1.902,1.392,2.342,2.712c4.048,12.139,2.494,18.707,16.521,49.002
		C706.096,606.454,691.462,626.431,696.697,678.523z"/>
	<path d="M455.216,1526.796c-3.943,5.038-4.393,12.16-12.383,13.733c-2.334,0.459-4.246,3.775-6.05,6.023
		c-6.822,8.502-10.718,1.259-13.006,6.465c-2.538,5.775-9.003,7.812-12.219,13.051c-1.196,1.948-2.827,4.292-6.114,4.247
		c-11.789-0.161-6.053,13.399-12.352,13.29c-10.212-0.178-16.993,7.139-24.388,11.982c-10.448,6.843-21.057,14.114-27.794,25.501
		c-3.393,5.734-13.142,4.659-15.946-1.385c-2.183-4.706-5.369-8.899-6.258-14.314c-1.048-6.384-9.126,2.058-12.316,9.642
		c-1.434,3.41-3.371,7.711-8.459,5.815c-9.45-3.522-3.659-18.138-0.914-21.305c3.745-4.321,25.488-43.448,26.539-45.508
		c3.908-7.659,11.748-11.249,17.633-16.812c3.856-3.645,10.364-0.132,12.671,5.316c1.737,4.103,4.015,5.219,8.337,2.205
		c23.231-16.197,14.291-15.247,28.344-20.765c5.249-2.061,8.988-0.368,11.032,3.802c2.346,4.785-1.304,8.631-4.563,11.613
		c-5.82,5.325-16.13,0.696-28.17,28.301c21.479-2.066,17.632-17.276,36.39-21.946
		C424.942,1540.844,443.378,1521.852,455.216,1526.796z"/>
	<path d="M874.507,1493.56c3.369,4.468,6.429,8.104,3.27,14.963c-1.707,3.706,2.685,34.368,2.825,35.377
		c0.193,1.39-0.498,3.837,1.833,3.723c1.487-0.072,3.204-0.417,4.432-2.45c2.558-4.238,6.203-7.813,8.844-12.01
		c1.781-2.83,4.76-3.791,6.9-3.299c2.21,0.509,1.98,3.964,1.967,6.377c-0.022,4.053-6.284,11.219-2.08,14.042
		c2.092,1.404,4.959,0.638,7.448-1.423c5.375-4.451,5.912-11.42,9.513-16.76c9.636-14.288,4.273-22.523,12.545-24.935
		c0.22,8.125-2.404,15.548-3.699,23.093c-2.096,12.214-0.31,15.755-11.942,26.195c-2.893,2.597-3.009,2.468,1.963,5.012
		c-11.848,3.028-4.696,16.505-14.259,17.009c-5.469,0.288-9.837,11.901-15.924,2.196c-2.511-4.003-6.152-3.319-8.471,0.634
		c-6.926,11.806-7.186-17.047-10.746-17.64c-1.935-0.323-3.074,1.388-3.469,2.8c-1.138,4.069-4.153,7.546-3.78,12.092
		c0.35,4.267-3.52,3.728-4.719,1.687c-3.125-5.321-8.418-9.503-8.298-16.532c0.106-6.198-4.244-11.215-4.549-17.538
		c-0.418-8.693-6.799-36.658-0.478-38.106c3.306-0.757,4.312,7.773,3.962,10.141c-1.82,12.303,6.143,21.988,8.905,33.066
		c2.229,8.937,14.082-9.052,12.114-22.016C866.775,1517.134,873.39,1505.775,874.507,1493.56z"/>
	<path d="M658.213,1544.53c8.72,3.99,11.465-10.73,15.874-6.825c7.154,6.336-22.904,28.944-25.262,40.457
		c-0.64,3.126-5.5,3.983-8.35,4.702c-1.84,0.465-4.234-3.352-4.684-6.69c-0.392-2.904-1.721-5.673-2.514-8.536
		c-1.259-4.544-5.451-2.99-7.017-0.466c-13.966,22.507-18.238,25.435-25.115,14.329c-8.178-13.207,0.753-20.749,16.767-41.992
		c4.234-5.616,19.253-17.92,20.255-17.682c2.931,0.696,0.401-6.188,4.848-3.362c5.217,3.316-3.182,10.703,3.442,14.779
		c4.206,2.588,4.478-1.564,6.386-2.835c3.185-2.123,5.125-5.871,9.135-6.97c1.159-0.318,1.983-2.167,3.504-0.592
		c1.312,1.359,0.628,2.76-0.258,3.675C660.291,1531.613,662.101,1539.116,658.213,1544.53z"/>
	<path d="M777.707,1516.613c4.511,3.132,6.903,15.335,13.43,11.625c6.107-3.471-1.703-10.17-0.526-14.88
		c0.357-1.426-0.582-3.388,1.699-3.929c2.636-0.625,2.978,1.799,3.65,3.225c0.472,1,1.058,14.979,14.422,31.774
		c5.411,6.801,2.775,12.039,11.041,12.021c7.355-0.017,6.056-13.583,11.126-12.426c2.669,0.609,1.681,3.855,1.369,5.956
		c-2.809,18.953,5.031,42.321-3.962,37.269c-6.824-3.832-15.11-5.328-18.95-13.697c-1.945-4.237-7.768-4.052-11.098-7.378
		C782.568,1548.849,775.417,1522.017,777.707,1516.613z"/>
	<path d="M700.944,1522.498c0,13.464-0.815,13.57,1.484,14.271c4.854,1.479,3.925-5.449,10.099-5.128
		c-4.089,6.882-5.667,14.254-10.728,20.065c-3.239,3.718-7.091,7.193-6.454,12.915c0.523,4.71-9.979,3.049-11.388,13.456
		c-1.37,10.118-18.836-1.804-11.224-19.148c2.266-5.163,6.463-9.396,9.099-14.213C686.436,1536.3,695.405,1532.335,700.944,1522.498
		z"/>
	<path d="M787.766,1569.172c-19.44-3.379-36.191-43.271-41.307-62.737c-1.134-4.313-6.231-7.815-1.441-9.653
		c2.7-1.036,4.84,3.139,5.345,5.273c6.461,27.279,34.585,62.4,40.035,64.244c0.373,0.126,0.559,1.769,0.321,2.552
		C790.085,1570.939,789.041,1568.647,787.766,1569.172z"/>
</g>
</svg>
